<?xml version="1.0" encoding="UTF-8" standalone="no"?>
<svg
   xmlns:dc="http://purl.org/dc/elements/1.1/"
   xmlns:cc="http://creativecommons.org/ns#"
   xmlns:rdf="http://www.w3.org/1999/02/22-rdf-syntax-ns#"
   xmlns:svg="http://www.w3.org/2000/svg"
   xmlns="http://www.w3.org/2000/svg"
   xmlns:sodipodi="http://sodipodi.sourceforge.net/DTD/sodipodi-0.dtd"
   xmlns:inkscape="http://www.inkscape.org/namespaces/inkscape"
   version="1.1"
   id="svg2"
   xml:space="preserve"
   width="753.3573"
   height="828.69336"
   viewBox="0 0 753.3573 828.69336"
   sodipodi:docname="nano tech (copy).ai.svg"
   inkscape:version="1.0.1 (1.0.1+r73)"><metadata
     id="metadata8"><rdf:RDF><cc:Work
         rdf:about=""><dc:format>image/svg+xml</dc:format><dc:type
           rdf:resource="http://purl.org/dc/dcmitype/StillImage" /><dc:title /></cc:Work></rdf:RDF></metadata><defs
     id="defs6"><clipPath
       clipPathUnits="userSpaceOnUse"
       id="clipPath18"><path
         d="M 0,621.52 H 565.018 V 0 H 0 Z"
         id="path16" /></clipPath><clipPath
       clipPathUnits="userSpaceOnUse"
       id="clipPath26"><path
         d="M -0.144104,621.679 H 565.162 V -0.158508 H -0.144104 Z"
         id="path24" /></clipPath><clipPath
       clipPathUnits="userSpaceOnUse"
       id="clipPath100"><path
         d="m 318.999,460.53 h 34.857 v -78.204 h -34.857 z"
         id="path98" /></clipPath><clipPath
       clipPathUnits="userSpaceOnUse"
       id="clipPath104"><path
         d="m 319.012,460.516 c 7.088,-6.671 10.749,-13.37 12.618,-17.516 1.206,-2.676 11.227,-25.818 -0.464,-44.304 -2.32,-3.671 -4.898,-6.211 -6.616,-7.72 2.906,-5.866 8.523,-9.255 13.829,-8.561 3.738,0.49 6.238,2.863 7.244,3.951 2.744,4.061 5.489,8.123 8.232,12.183 0.085,18.971 -5.736,30.616 -9.878,36.878 -8.723,13.189 -24.959,25.124 -24.979,25.104 0,-0.001 0.007,-0.009 0.014,-0.015"
         id="path102" /></clipPath><linearGradient
       x1="0"
       y1="0"
       x2="1"
       y2="0"
       gradientUnits="userSpaceOnUse"
       gradientTransform="matrix(30.148046,52.217949,52.217949,-30.148046,315.34131,393.01831)"
       spreadMethod="pad"
       id="linearGradient112"><stop
         style="stop-opacity:1;stop-color:#ffffff"
         offset="0"
         id="stop106" /><stop
         style="stop-opacity:1;stop-color:#ffffff"
         offset="0.55510275"
         id="stop108" /><stop
         style="stop-opacity:1;stop-color:#231f20"
         offset="1"
         id="stop110" /></linearGradient><clipPath
       clipPathUnits="userSpaceOnUse"
       id="clipPath138"><path
         d="m 236.601,468.734 h 32.444 v -76.477 h -32.444 z"
         id="path136" /></clipPath><clipPath
       clipPathUnits="userSpaceOnUse"
       id="clipPath142"><path
         d="m 269.046,455.146 c -1.873,-1.437 -4.376,-3.59 -6.892,-6.585 -10.204,-12.145 -10.67,-26.264 -10.701,-29.469 -0.129,-13.47 5.614,-23.158 8.067,-26.835 -4.101,2.705 -12.637,9.146 -18.11,20.744 -0.871,1.846 -4.387,9.594 -4.774,20.414 -0.529,14.79 5.12,26.047 8.231,31.281 3.773,3.893 7.146,4.049 8.176,4.038 4.47,-0.051 7.837,-3.753 11.714,-8.016 1.987,-2.185 3.394,-4.187 4.289,-5.572"
         id="path140" /></clipPath><linearGradient
       x1="0"
       y1="0"
       x2="1"
       y2="0"
       gradientUnits="userSpaceOnUse"
       gradientTransform="matrix(37.495541,11.463537,11.463537,-37.495541,237.29597,424.88803)"
       spreadMethod="pad"
       id="linearGradient150"><stop
         style="stop-opacity:1;stop-color:#ffffff"
         offset="0"
         id="stop144" /><stop
         style="stop-opacity:1;stop-color:#ffffff"
         offset="0.55510275"
         id="stop146" /><stop
         style="stop-opacity:1;stop-color:#231f20"
         offset="1"
         id="stop148" /></linearGradient></defs><sodipodi:namedview
     pagecolor="#ffffff"
     bordercolor="#666666"
     borderopacity="1"
     objecttolerance="10"
     gridtolerance="10"
     guidetolerance="10"
     inkscape:pageopacity="0"
     inkscape:pageshadow="2"
     inkscape:window-width="1528"
     inkscape:window-height="836"
     id="namedview4"
     showgrid="false"
     inkscape:zoom="0.46104347"
     inkscape:cx="-0.29790337"
     inkscape:cy="575.38009"
     inkscape:window-x="72"
     inkscape:window-y="27"
     inkscape:window-maximized="1"
     inkscape:current-layer="g14"
     inkscape:document-rotation="0" /><g
     id="g10"
     inkscape:groupmode="layer"
     inkscape:label="nano tech (copy)"
     transform="matrix(1.3333333,0,0,-1.3333333,0,828.69333)"><g
       id="g12"><g
         id="g14"
         clip-path="url(#clipPath18)"><g
           id="g220"
           transform="matrix(3.2345963,-1.2600968,1.6366374,2.4904141,-1404.5546,-409.35916)"
           style="fill:#0000ff"><g
             id="g90"
             transform="translate(304.136,474.281)"
             style="fill:#0000ff"><path
               d="m 0,0 c -6.488,6.003 -11.011,10.305 -12.183,17.122 -0.322,1.873 -1.041,6.441 1.646,9.878 0.938,1.2 3.071,3.258 8.561,3.951 5.725,0.723 17.256,0.233 29.963,-8.561 17.481,-12.098 23.659,-30.55 25.684,-36.878 8.983,-28.091 -0.377,-52.932 -3.952,-61.244 0.204,19.193 -5.635,30.681 -9.878,36.878 -3.362,4.91 -8.058,9.31 -17.451,18.11 C 18.947,-17.519 5.567,-5.151 0,0"
               style="fill:#0000ff;fill-opacity:1;fill-rule:nonzero;stroke:none"
               id="path92" /></g><g
             id="g94"
             style="fill:#0000ff"><g
               id="g96"
               style="fill:#0000ff" /><g
               id="g126"
               style="fill:#0000ff"><g
                 clip-path="url(#clipPath100)"
                 opacity="0.669998"
                 id="g124"
                 style="fill:#0000ff"><g
                   id="g122"
                   style="fill:#0000ff"><g
                     clip-path="url(#clipPath104)"
                     id="g120"
                     style="fill:#0000ff"><g
                       id="g118"
                       style="fill:#0000ff"><g
                         id="g116"
                         style="fill:#0000ff"><path
                           d="m 319.012,460.516 c 7.088,-6.671 10.749,-13.37 12.618,-17.516 1.206,-2.676 11.227,-25.818 -0.464,-44.304 -2.32,-3.671 -4.898,-6.211 -6.616,-7.72 2.906,-5.866 8.523,-9.255 13.829,-8.561 3.738,0.49 6.238,2.863 7.244,3.951 2.744,4.061 5.489,8.123 8.232,12.183 0.085,18.971 -5.736,30.616 -9.878,36.878 -8.723,13.189 -24.959,25.124 -24.979,25.104 0,-0.001 0.007,-0.009 0.014,-0.015"
                           style="fill:#0000ff;stroke:none"
                           id="path114" /></g></g></g></g></g></g></g><g
             id="g128"
             transform="translate(344.8968,385.635)"
             style="fill:#0000ff"><path
               d="m 0,0 c -2.602,-3.409 -8.06,-9.523 -17.054,-13.098 -4.126,-1.64 -10.134,-4.027 -17.286,-2.305 -9.218,2.22 -14.276,9.808 -16.629,13.336 -2.682,4.023 -3.918,7.534 -5.761,13.664 -5.931,19.724 -5.982,26.103 -10.702,39.677 -3.707,10.663 -6.698,15.421 -8.89,18.439 -2.881,3.967 -10.392,14.31 -17.999,12.846 -2.328,-0.449 -4.062,-1.887 -5.214,-3.133 0.935,2.156 4.504,9.663 13.17,13.994 2.329,1.164 10.62,4.894 19.427,1.976 8.047,-2.666 12.035,-9.393 16.463,-17.122 3.688,-6.435 4.275,-9.476 14.16,-41.323 0.943,-3.04 3.309,-10.545 7.902,-19.427 0.529,-1.024 3.259,-6.235 8.066,-12.183 5.996,-7.418 8.904,-8.161 9.945,-8.364 C -5.795,-3.921 -1.698,-1.262 0,0"
               style="fill:#0000ff;fill-opacity:1;fill-rule:nonzero;stroke:none"
               id="path130" /></g><g
             id="g132"
             style="fill:#0000ff"><g
               id="g134"
               style="fill:#0000ff" /><g
               id="g164"
               style="fill:#0000ff"><g
                 clip-path="url(#clipPath138)"
                 opacity="0.669998"
                 id="g162"
                 style="fill:#0000ff"><g
                   id="g160"
                   style="fill:#0000ff"><g
                     clip-path="url(#clipPath142)"
                     id="g158"
                     style="fill:#0000ff"><g
                       id="g156"
                       style="fill:#0000ff"><g
                         id="g154"
                         style="fill:#0000ff"><path
                           d="m 269.046,455.146 c -1.873,-1.437 -4.376,-3.59 -6.892,-6.585 -10.204,-12.145 -10.67,-26.264 -10.701,-29.469 -0.129,-13.47 5.614,-23.158 8.067,-26.835 -4.101,2.705 -12.637,9.146 -18.11,20.744 -0.871,1.846 -4.387,9.594 -4.774,20.414 -0.529,14.79 5.12,26.047 8.231,31.281 3.773,3.893 7.146,4.049 8.176,4.038 4.47,-0.051 7.837,-3.753 11.714,-8.016 1.987,-2.185 3.394,-4.187 4.289,-5.572"
                           style="fill:#0000ff;stroke:none"
                           id="path152" /></g></g></g></g></g></g></g><g
             id="g166"
             transform="translate(280.4818,505.4641)"
             style="fill:#0000ff"><path
               d="m 0,0 c 0,-7.638 -6.191,-13.829 -13.829,-13.829 -7.638,0 -13.829,6.191 -13.829,13.829 0,7.638 6.191,13.829 13.829,13.829 C -6.191,13.829 0,7.638 0,0"
               style="fill:#0000ff;fill-opacity:1;fill-rule:nonzero;stroke:none"
               id="path168" /></g></g></g></g></g></svg>
